<?xml version="1.0" encoding="utf-8"?>
<!-- Svg Vector Icons : http://www.onlinewebfonts.com/icon -->
<!DOCTYPE svg PUBLIC "-//W3C//DTD SVG 1.1//EN" "http://www.w3.org/Graphics/SVG/1.1/DTD/svg11.dtd">
<svg version="1.1" xmlns="http://www.w3.org/2000/svg" xmlns:xlink="http://www.w3.org/1999/xlink" x="0px" y="0px" viewBox="0 0 1000 1000" enable-background="new 0 0 1000 1000" xml:space="preserve">
<metadata> Svg Vector Icons : http://www.onlinewebfonts.com/icon </metadata>
<g><g transform="translate(0.000000,512.000000) scale(0.100000,-0.100000)"><path d="M1014.9,2989.2l-5.7-2030.8L708.7,782.3L406.2,608.1V-2085v-2695H5000h4593.8v3973.6c0,3177.4-5.7,3969.8-23,3954.5c-95.7-74.7-2390.7-1783.9-2398.3-1783.9c-5.7,0-11.5,409.6-13.4,909.2l-5.7,907.3l-1215.4-907.3c-668-499.6-1221.2-907.3-1228.8-909.2c-7.7,0-17.2,390.5-19.1,869l-5.7,867.1L3775,2571.9l-909.2-530.2l-5.7,1489.1l-3.8,1489.1h-918.8h-918.7L1014.9,2989.2z M2243.7,3042.8V1678l-243.1-141.6c-135.9-78.5-273.7-158.9-306.2-178l-63.2-36.4v1542.7v1542.7h306.3h306.2V3042.8z M4090.8,139.1c3.8,0,558.9,409.6,1228.8,911.1l1221.2,909.2l9.6-911.1l9.6-911.1l1158,865.2c637.4,474.7,1181,880.5,1211.6,901.5l51.7,36.4v-3052.9v-3054.8H5000H1018.7l3.8,2214.6l5.7,2212.6L2550,1145.9l1521.7,888.1l5.7-947.5C4079.3,566,4085.1,139.1,4090.8,139.1z"/><path d="M1631.2-2636.2V-3555H2550h918.8v918.7v918.8H2550h-918.7V-2636.2z M2856.2-2636.2v-306.3H2550h-306.3v306.3v306.3H2550h306.3V-2636.2z"/><path d="M4081.2-2636.2V-3555H5000h918.8v918.7v918.8H5000h-918.8V-2636.2z M5306.2-2636.2v-306.3H5000h-306.3v306.3v306.3H5000h306.2V-2636.2z"/><path d="M6531.2-2636.2V-3555H7450h918.7v918.7v918.8H7450h-918.8V-2636.2z M7756.2-2636.2v-306.3H7450h-306.3v306.3v306.3H7450h306.2V-2636.2z"/></g></g>
</svg>